<svg xmlns="http://www.w3.org/2000/svg" width="400" height="400"><path fill="#fff" d="M399.152 290.969l.055-.027-.844-1.517-.603-1.625c-10.008 3.724-18.985 3.514-27.439-.636-27.023-13.271-42.834-64.046-58.123-113.148-14.784-47.489-28.75-92.352-52.273-98.737-9.619-2.617-19.896 1.217-31.417 11.723-16.558 15.77-31.994 49.632-46.926 82.381-17.822 39.093-36.25 79.521-53.976 81.186-11.943 1.191-24.243-14.795-37.224-31.654-21.701-28.179-48.712-63.248-88.937-37.935l.793 1.265-.87.572.833 1.176c-.303.229-.601.418-.902.655l.863 1.095c-.308.256-.616.472-.925.738l.88 1.016c-.312.285-.623.52-.936.814l2.377 2.524c9.134-8.61 17.647-11.979 25.988-10.314 21.958 4.383 39.717 44.033 55.383 79.019 15.831 35.34 29.543 65.965 46.956 65.965.381 0 .765-.014 1.154-.044 24.771-1.916 33.939-35.045 44.555-73.408 7.531-27.217 16.068-58.063 31.507-80.089 13.735-18.749 25.995-27.407 37.492-26.441 20.576 1.713 36.863 34.074 54.108 68.337 18.262 36.284 37.146 73.798 64.199 82.114 10.776 3.309 22.278 1.637 34.179-4.963l.017-.006.056-.036zm-312.947-50.176c15.209 26.99 28.28 50.284 44.277 48.95 22.3-1.895 36.191-39.405 50.902-79.114 11.185-30.198 22.751-61.421 38.632-79.902 11.951-13.906 22.498-19.88 32.205-18.252 20.816 3.479 35.905 41.412 51.875 81.568 8.808 22.133 17.776 44.621 28.174 62.811-9.73-15.959-18.453-35.387-27.029-54.516-17.063-38.063-33.178-74.016-55.693-76.754-11.809-1.448-24.166 6.284-37.712 23.62-16.174 20.7-26.125 51.378-35.743 81.05-12.038 37.119-23.402 72.183-44.61 73.894-14.558 1.246-28.31-26.303-42.823-55.399-6.095-12.229-12.276-24.601-18.805-35.611 5.737 8.856 11.162 18.459 16.35 27.655zm-21.663-41.29c8.02 9.531 15.406 20.856 22.354 31.549 14.705 22.627 27.435 42.153 42.312 40.834 20.989-1.876 36.936-40.421 53.818-81.225 12.958-31.316 26.357-63.698 42.428-80.535 11.183-11.715 20.979-16.477 29.975-14.544 21.128 4.538 35.547 45.417 50.812 88.698 7.664 21.725 15.448 43.787 24.438 62.423-8.382-16.284-15.928-35.247-23.362-53.939-16.341-41.089-31.782-79.9-54.524-83.704-11.007-1.833-22.6 4.506-35.407 19.414-16.288 18.947-27.961 50.471-39.252 80.954-14.314 38.648-27.838 75.159-47.945 76.866-13.666 1.152-26.944-22.326-40.964-47.193-7.61-13.498-15.716-27.849-24.683-39.598zm23.095 21.53c14.168 18.399 26.378 34.308 40.294 32.994 19.722-1.861 37.733-41.371 56.805-83.203 14.791-32.448 30.087-65.999 46.131-81.283 10.55-9.618 19.76-13.186 28.147-10.914 21.692 5.884 35.38 49.864 49.88 96.429 6.933 22.28 13.98 44.884 22.181 64.328-7.769-17.163-14.717-36.842-21.564-56.256-15.603-44.223-30.334-85.991-53.356-90.934-10.263-2.2-21.127 2.88-33.211 15.542-16.518 17.304-30.042 49.993-43.119 81.603-16.472 39.802-32.029 77.407-50.927 79.089-12.802 1.182-25.588-18.484-39.098-39.273-8.897-13.688-18.484-28.403-29.361-39.29 9.871 8.684 18.755 20.201 27.198 31.168zm159.24-78.966c-12.764-1.068-26.066 8.045-40.593 27.877-15.805 22.542-24.425 53.698-32.034 81.187-10.266 37.103-19.135 69.146-41.479 70.872-15.521 1.201-29.683-30.411-44.677-63.887-4.581-10.229-9.208-20.552-13.996-30.256 3.955 7.402 7.768 15.027 11.456 22.431 15.323 30.724 28.601 57.365 44.981 57.357.406 0 .814-.014 1.227-.047 23.509-1.903 34.687-36.373 47.625-76.282 9.527-29.384 19.382-59.771 35.182-79.985 12.733-16.296 24.059-23.588 34.558-22.314 20.573 2.503 36.302 37.586 52.951 74.729 9.508 21.209 19.199 42.75 30.342 59.765-10.263-14.761-19.524-33.133-28.626-51.212-17.691-35.156-34.405-68.363-56.917-70.235z"/></svg>